<svg viewBox="247.6875 371.1538461538462 3368.5500000000006 2919.7435897435903" fill="none" xmlns="http://www.w3.org/2000/svg" xmlns:xlink="http://www.w3.org/1999/xlink" xmlns:blush="http://design.blush" overflow="visible" width="3368.5500000000006px" height="2919.7435897435903px"><g id="Master/Spot Illustration/Stats and Graphs" blush:has-customizable-colors="true" blush:viewBox="-118.89000000000033 374.50718685831635 3705.405000000001 2893.018480492812" blush:i="0"><g id="Graph 1" blush:i="0.0"><rect id="Rectangle" opacity="0.331171" x="1642" y="1544" width="1869" height="1428" rx="234" fill="#EECCDC" blush:i="0.0.0"/><path id="Path 8" d="M3415.04 1675.51C3418.07 1667.8 3426.78 1664.01 3434.49 1667.04C3442.2 1670.07 3445.99 1678.77 3442.96 1686.48L3439.07 1696.35C3375.82 1856.77 3323 1977.59 3280.53 2058.94C3234.27 2147.52 3200.6 2190.66 3170.7 2190.66C3151.33 2190.66 3138.56 2178.9 3131.74 2159.31L3131.35 2158.18C3127.39 2146.39 3125.61 2134.33 3123.24 2108.95L3121.89 2094.46C3121.78 2093.34 3121.68 2092.29 3121.55 2091.01L3121.36 2089.2C3118.28 2059.95 3113.96 2042.58 3105.88 2031.33C3096.76 2018.62 3082.11 2014.63 3055.7 2021.66C3032.44 2027.84 3000.78 2059.01 2959.55 2115.44L2957.13 2118.77C2939.99 2142.42 2921.42 2169.93 2897.87 2206.22L2892.59 2214.39C2876.64 2239.13 2839.82 2296.66 2831.24 2309.94L2827.51 2315.7C2767.01 2409.09 2724 2469.11 2680.38 2517.22C2619.14 2584.78 2563.96 2618.37 2510.84 2612.32C2465.26 2607.13 2429.57 2588.41 2400.39 2557.15C2388.17 2544.06 2377.17 2528.9 2366.43 2510.94L2365.63 2509.6C2357.92 2496.6 2350.88 2483.17 2341.42 2463.94L2330.09 2440.73C2321.14 2422.46 2315.2 2410.97 2308.79 2399.89L2307.61 2397.88C2298.44 2382.24 2289.43 2369.72 2279.75 2359.5C2257.86 2336.41 2232.08 2324.84 2197.39 2324.84C2145.6 2324.84 2081.81 2370.37 2007.66 2463C1931.7 2557.9 1845.88 2700.85 1750.41 2891.71C1746.71 2899.12 1737.7 2902.12 1730.29 2898.41C1722.88 2894.71 1719.88 2885.69 1723.58 2878.29C1918.22 2489.19 2073.79 2294.84 2197.39 2294.84C2240.49 2294.84 2274.08 2309.92 2301.52 2338.87C2312.94 2350.91 2323.24 2365.23 2333.49 2382.69L2334.43 2384.3C2341.18 2395.92 2347.27 2407.63 2356.19 2425.8L2366.88 2447.72L2368.79 2451.62C2389.27 2493.13 2403.37 2516.39 2422.32 2536.68C2446.74 2562.84 2475.93 2578.15 2514.24 2582.51C2555.11 2587.17 2602.8 2558.13 2658.16 2497.07C2700.83 2450 2743.54 2390.26 2804.2 2296.51L2809.4 2288.44C2823.25 2266.91 2861.01 2207.91 2871.89 2191.14L2875.97 2184.87C2898.78 2149.81 2917 2122.93 2934.04 2099.51C2979.96 2036.38 3015.37 2001.34 3047.99 1992.66C3085.65 1982.65 3113.25 1990.16 3130.25 2013.83C3137.11 2023.38 3141.91 2035.1 3145.35 2049.28C3147.9 2059.8 3149.63 2071.11 3151.18 2085.92L3151.91 2093.13L3153.3 2108.13C3155.41 2130.31 3157.01 2140.67 3160.07 2149.43L3160.36 2150.25C3163.27 2158.26 3166.03 2160.66 3170.7 2160.66C3171.22 2160.66 3172.07 2160.47 3173.29 2159.95C3175.05 2159.19 3177.16 2157.9 3179.56 2156.05C3185.12 2151.77 3191.66 2144.91 3198.99 2135.52L3199.92 2134.32C3215.16 2114.53 3233.22 2084.73 3253.93 2045.05C3296.69 1963.17 3350.42 1839.94 3415.04 1675.51Z" fill="#56ACF6" blush:i="0.0.1"/><path id="Path 10" d="M3416.64 2114.51C3421.33 2107.68 3430.66 2105.95 3437.49 2110.64C3444.32 2115.33 3446.05 2124.67 3441.36 2131.49C3277.99 2369.32 3153.29 2474.06 3061.53 2441.6C3043.35 2435.17 3023.63 2424.49 2999.42 2408.66L2997 2407.08C2988.8 2401.66 2980.16 2395.73 2969.69 2388.36L2964.08 2384.39C2957.21 2379.52 2936.73 2364.9 2931.05 2360.88L2926.87 2357.93C2898.36 2337.86 2877.43 2324.2 2856.49 2312.51L2855.73 2312.09C2828.42 2296.91 2803.76 2286.87 2780.57 2282.07C2750.52 2275.84 2723.19 2278.48 2697.46 2291.04C2668.7 2305.07 2641.57 2331.7 2616.02 2372.78L2615.24 2374.03C2552.07 2476.45 2474.12 2530.19 2382.35 2544.22C2343.79 2550.12 2303.51 2548.94 2260.18 2541.76L2257.76 2541.35C2225.01 2535.78 2192.82 2527.39 2151.57 2514.56L2146.06 2512.83C2133.51 2508.87 2107.74 2500.62 2103.35 2499.24C2021.26 2473.4 1902.02 2537.41 1747.7 2694.51C1741.9 2700.42 1732.4 2700.51 1726.49 2694.7C1720.58 2688.9 1720.49 2679.4 1726.3 2673.49C1886.29 2510.62 2013.33 2441.65 2109.45 2469.74L2112.36 2470.62C2117.4 2472.21 2149.27 2482.41 2158.98 2485.44L2163.37 2486.81C2202.55 2498.92 2233.1 2506.79 2263.94 2511.97L2265.09 2512.16C2305.48 2518.85 2342.64 2519.95 2377.82 2514.57C2459.85 2502.02 2529.65 2454.34 2587.95 2361.12L2589.71 2358.28C2644.84 2268.91 2710.43 2236.89 2786.66 2252.69C2813.17 2258.19 2840.54 2269.33 2870.31 2285.87L2871.9 2286.76C2893.66 2298.95 2915.16 2313 2944.09 2333.37L2955.12 2341.18C2964.36 2347.76 2978.55 2357.88 2982.55 2360.72L2987.78 2364.41C2998.21 2371.74 3006.74 2377.58 3014.83 2382.89L3016.75 2384.15C3038.7 2398.44 3056.25 2407.91 3071.54 2413.32C3144.24 2439.04 3261.18 2340.81 3416.64 2114.51Z" fill="#E93737" blush:i="0.0.2"/></g><g id="Group 3" blush:i="0.1"><g id="Group" blush:i="0.1.0"><path id="Combined Shape Copy 4" fill-rule="evenodd" clip-rule="evenodd" d="M1783.12 577.421C1834.22 429.038 1995.74 350.107 2143.9 401.122C2292.06 452.138 2370.75 613.782 2319.66 762.165C2268.57 910.548 2107.04 989.48 1958.88 938.464C1810.72 887.448 1732.03 725.804 1783.12 577.421ZM1906.06 619.751C1933.78 539.233 2021.33 496.365 2101.59 524.003C2181.86 551.64 2224.45 639.318 2196.72 719.835C2169 800.353 2081.46 843.221 2001.19 815.584C1920.93 787.946 1878.33 700.269 1906.06 619.751Z" fill="#EECCDC" blush:i="0.1.0.0"/><path id="Combined Shape Copy 5" fill-rule="evenodd" clip-rule="evenodd" d="M2205.24 661.91C2202.7 616.157 2179.74 573.348 2142.47 546.017L2219.29 441.062C2288.23 491.458 2330.73 570.451 2335.46 654.865L2205.24 661.91Z" fill="#EA4343" blush:i="0.1.0.1"/><path id="Combined Shape Copy 6" fill-rule="evenodd" clip-rule="evenodd" d="M1890.94 904.611C1852.37 878.275 1821.52 843.215 1800.23 803.177L1915.31 742.276C1926.89 764.132 1943.71 783.255 1964.77 797.577L1890.94 904.611Z" fill="#56ACF6" blush:i="0.1.0.2"/></g><g id="Group Copy" blush:i="0.1.1"><path id="Combined Shape Copy 4_2" fill-rule="evenodd" clip-rule="evenodd" d="M2248.9 1150.53C2280.06 1060.03 2378.65 1011.91 2469.1 1043.06C2559.55 1074.2 2607.62 1172.82 2576.46 1263.32C2545.3 1353.82 2446.71 1401.93 2356.25 1370.79C2265.8 1339.64 2217.74 1241.03 2248.9 1150.53ZM2323.95 1176.37C2340.86 1127.26 2394.29 1101.13 2443.3 1118C2492.3 1134.88 2518.31 1188.36 2501.41 1237.47C2484.5 1286.58 2431.06 1312.71 2382.06 1295.84C2333.06 1278.97 2307.04 1225.48 2323.95 1176.37Z" fill="#EECCDC" blush:i="0.1.1.0"/><path id="Combined Shape Copy 5_2" fill-rule="evenodd" clip-rule="evenodd" d="M2506.5 1202.05C2504.95 1174.14 2490.92 1148.03 2468.17 1131.35L2515.04 1067.34C2557.13 1098.1 2583.09 1146.29 2586 1197.78L2506.5 1202.05Z" fill="#204EB2" blush:i="0.1.1.1"/><path id="Combined Shape Copy 6_2" fill-rule="evenodd" clip-rule="evenodd" d="M2314.84 1350.23C2291.29 1334.16 2272.45 1312.77 2259.45 1288.34L2329.69 1251.22C2336.76 1264.55 2347.03 1276.22 2359.89 1284.96L2314.84 1350.23Z" fill="#EA4343" blush:i="0.1.1.2"/></g></g><g id="Group 2" blush:i="0.2"><path id="Combined Shape Copy 4_3" fill-rule="evenodd" clip-rule="evenodd" d="M3094 1281C2864.25 1281 2678 1095.65 2678 867C2678 638.354 2864.25 453 3094 453C3323.75 453 3510 638.354 3510 867C3510 1095.65 3323.75 1281 3094 1281ZM3094 1091.28C2969.33 1091.28 2868.26 990.868 2868.26 867C2868.26 743.132 2969.33 642.717 3094 642.717C3218.67 642.717 3319.74 743.132 3319.74 867C3319.74 990.868 3218.67 1091.28 3094 1091.28Z" fill="#EECCDC" blush:i="0.2.0"/><path id="Combined Shape Copy 5_3" fill-rule="evenodd" clip-rule="evenodd" d="M3010.13 658.304C2948.08 683.52 2899.83 735.501 2879.79 799.867L2698.13 743.781C2734.98 624.801 2823.96 528.698 2938.4 482.094L3010.13 658.304Z" fill="#EA4343" blush:i="0.2.1"/><path id="Combined Shape Copy 6_3" fill-rule="evenodd" clip-rule="evenodd" d="M3399.1 1148.96L3259.51 1019.45C3284.32 993.156 3302.83 960.944 3312.65 925.18L3496.58 976.061C3478.45 1041.62 3444.52 1100.69 3399.1 1148.96Z" fill="#56ACF6" blush:i="0.2.2"/></g><ellipse id="Floor" opacity="0.5" cx="1982" cy="3206" rx="1602" ry="58" fill="#D5ECFF" blush:i="0.3"/><g id="Master/Character/Standing" blush:has-customizable-colors="true" blush:component="Master/Character/Standing" blush:width="2330" blush:height="2708" transform="translate(-100 498) scale(1 1)" blush:i="0.4" blush:value="Standing" blush:viewBox="365.75581395348854 27.079999999999927 1598.488372093023 2680.919999999999"><g id="Master/Character/Standing" blush:has-customizable-colors="true" blush:viewBox="365.75581395348854 27.079999999999927 1598.488372093023 2680.919999999999" blush:i="0.4.0"><g id="Lower Body/Standing" blush:component="Lower Body/Standing" blush:defaultValue="Pijamas with Socks" blush:width="1383" blush:height="1557" transform="translate(503 1151) scale(1 1)" blush:i="0.4.0.0" blush:value="Summer Shorts" blush:viewBox="348.864864864865 0 739.7804054054055 1556.9999999999995"><g id="Lower Body/Standing/Summer Shorts" blush:viewBox="348.864864864865 0 739.7804054054055 1556.9999999999995" blush:i="0.4.0.0.0"><g id="Group 46" blush:i="0.4.0.0.0.0"><path id="Fill 1" fill-rule="evenodd" clip-rule="evenodd" d="M434.224 100.607C434.224 100.607 364.117 312.824 394.433 564.831C424.75 816.838 475.909 1328.43 475.909 1328.43H591.492C591.492 1328.43 600.966 843.365 618.019 678.518C635.072 513.671 642.651 396.194 642.651 396.194L671.073 276.823L680.547 434.09C680.547 434.09 877.605 1192.01 892.764 1341.7L1002.66 1339.8C1002.66 1339.8 940.133 439.775 928.765 371.562C917.396 303.349 834.025 121.45 834.025 121.45L434.224 100.607Z" fill="#c26e5e" blush:color="Skin-500" blush:i="0.4.0.0.0.0.0"/><path id="Fill 3" fill-rule="evenodd" clip-rule="evenodd" d="M592.836 1352.21H476.814C470.829 1352.21 465.977 1347.36 465.977 1341.37V1341.28C465.977 1335.29 470.829 1330.44 476.814 1330.44H592.836C598.821 1330.44 603.673 1335.29 603.673 1341.28V1341.37C603.673 1347.36 598.821 1352.21 592.836 1352.21" fill="#56ACF6" blush:i="0.4.0.0.0.0.1"/><path id="Fill 5" fill-rule="evenodd" clip-rule="evenodd" d="M604.131 1358.23C604.131 1360.05 603.391 1361.7 602.201 1362.89C601.011 1364.09 599.361 1364.83 597.541 1364.83H595.571V1430.57H474.941V1364.83H473.031C469.391 1364.83 466.441 1361.87 466.441 1358.23C466.441 1356.41 467.181 1354.76 468.371 1353.57C469.561 1352.38 471.211 1351.64 473.031 1351.64H597.541C601.181 1351.64 604.131 1354.59 604.131 1358.23" fill="#E4F9FF" blush:i="0.4.0.0.0.0.2"/><path id="Fill 7" fill-rule="evenodd" clip-rule="evenodd" d="M415.694 1546.17C415.694 1546.17 413.563 1512.35 423.95 1508.62C434.337 1504.89 610.155 1499.84 610.155 1499.84L609.845 1534.99C609.845 1534.99 557.113 1548.84 511.305 1550.43C465.497 1552.03 417.026 1548.3 415.694 1546.17" fill="#E4F9FF" blush:i="0.4.0.0.0.0.3"/><path id="Fill 9" fill-rule="evenodd" clip-rule="evenodd" d="M610.157 1499.84C610.187 1501.77 610.207 1502.87 610.207 1502.87C610.207 1502.87 575.617 1510.26 546.057 1513.29C516.497 1516.31 429.507 1520 423.797 1512.61C419.077 1506.5 455.637 1456.38 468.477 1439.15C465.687 1437.85 463.747 1435.01 463.747 1431.72C463.747 1429.46 464.667 1427.4 466.147 1425.92C467.627 1424.44 469.687 1423.52 471.947 1423.52H603.107C607.637 1423.52 611.307 1427.19 611.307 1431.72C611.307 1433.98 610.387 1436.04 608.907 1437.52C608.347 1438.08 607.707 1438.56 607.007 1438.94C609.137 1454.41 609.947 1489.35 610.157 1499.84" fill="#204EB2" blush:i="0.4.0.0.0.0.4"/><path id="Fill 11" fill-rule="evenodd" clip-rule="evenodd" d="M434.479 1489.01C434.479 1489.01 414.74 1510.19 424.624 1513.61C434.508 1517.03 512.058 1520.08 540.569 1515.51L569.08 1510.95C569.08 1510.95 571.276 1498.41 554.132 1485.75C541.879 1476.7 533.903 1464.23 522.499 1461.95C511.094 1459.67 489.094 1458.45 479.21 1463.39C469.327 1468.34 452.235 1478.42 434.479 1489.01" fill="#56ACF6" blush:i="0.4.0.0.0.0.5"/><path id="Fill 13" fill-rule="evenodd" clip-rule="evenodd" d="M574.229 1467.89C574.229 1467.89 575.718 1496.18 586.515 1495.44C597.312 1494.69 601.882 1451.5 607.467 1438.85C607.467 1438.85 602.081 1437.4 592.965 1462.46C588.353 1475.15 589.494 1488.74 574.229 1467.89" fill="white" blush:i="0.4.0.0.0.0.6"/><path id="Stroke 15" d="M470.071 1454.51C478.828 1451.92 488.575 1450.45 499.037 1450.68C512.587 1450.98 526.271 1454.13 539.774 1460.7C541.761 1461.66 542.588 1464.06 541.621 1466.05C540.655 1468.03 538.261 1468.86 536.274 1467.89C523.837 1461.84 511.286 1458.95 498.862 1458.68C489.277 1458.47 480.345 1459.81 472.344 1462.19C469.755 1462.95 467.462 1463.77 465.496 1464.58C464.932 1464.82 464.432 1465.04 463.999 1465.23L463.45 1465.49L463.234 1465.6C461.271 1466.61 458.858 1465.84 457.845 1463.88C456.832 1461.91 457.602 1459.5 459.565 1458.49L459.973 1458.28C460.542 1458.01 461.368 1457.64 462.437 1457.19C464.654 1456.28 467.208 1455.36 470.071 1454.51Z" fill="white" blush:i="0.4.0.0.0.0.7"/><path id="Stroke 17" d="M480.739 1430.33C489.496 1427.74 499.243 1426.27 509.705 1426.5C523.254 1426.8 536.939 1429.95 550.442 1436.52C552.429 1437.48 553.256 1439.88 552.289 1441.86C551.323 1443.85 548.929 1444.68 546.942 1443.71C534.504 1437.66 521.954 1434.77 509.529 1434.5C499.944 1434.29 491.012 1435.63 483.011 1438C480.423 1438.77 478.13 1439.59 476.164 1440.4L475.518 1440.67C475.313 1440.76 475.119 1440.85 474.935 1440.93L474.204 1441.27L473.902 1441.41C471.939 1442.43 469.526 1441.66 468.513 1439.69C467.5 1437.73 468.27 1435.32 470.233 1434.31L470.492 1434.17C471.061 1433.89 471.938 1433.49 473.105 1433.01C475.322 1432.09 477.876 1431.18 480.739 1430.33Z" fill="white" blush:i="0.4.0.0.0.0.8"/><path id="Stroke 19" d="M476.665 1438.08C485.474 1435.69 495.317 1434.45 505.878 1434.96C519.69 1435.63 533.554 1439.26 547.11 1446.46C549.061 1447.5 549.802 1449.92 548.766 1451.87C547.729 1453.82 545.308 1454.57 543.357 1453.53C530.872 1446.9 518.158 1443.56 505.492 1442.95C495.817 1442.48 486.798 1443.62 478.756 1445.8C476.39 1446.44 474.296 1447.12 472.501 1447.8L471.912 1448.03C471.539 1448.18 471.204 1448.31 470.907 1448.44L470.445 1448.64C468.447 1449.59 466.063 1448.73 465.12 1446.73C464.177 1444.73 465.032 1442.35 467.03 1441.41L467.439 1441.22C467.962 1440.99 468.709 1440.68 469.671 1440.32C471.702 1439.55 474.042 1438.79 476.665 1438.08Z" fill="white" blush:i="0.4.0.0.0.0.9"/><path id="Stroke 21" d="M475.575 1449.48C495.336 1441.79 517.987 1440.16 542.128 1448.41C544.219 1449.12 545.335 1451.39 544.621 1453.48C543.908 1455.57 541.634 1456.69 539.544 1455.98C517.34 1448.4 496.592 1449.88 478.478 1456.94C475.156 1458.23 472.218 1459.61 469.702 1460.99C469.081 1461.33 468.521 1461.65 468.023 1461.94L467.327 1462.37L466.779 1462.72C464.956 1463.97 462.467 1463.5 461.219 1461.68C459.971 1459.85 460.438 1457.36 462.26 1456.12L462.696 1455.83C463.407 1455.37 464.469 1454.73 465.866 1453.97C468.675 1452.43 471.922 1450.9 475.575 1449.48Z" fill="white" blush:i="0.4.0.0.0.0.10"/><path id="Fill 23" fill-rule="evenodd" clip-rule="evenodd" d="M898.544 1362.16L1014.42 1356.25C1020.39 1355.95 1024.99 1350.86 1024.69 1344.88L1024.68 1344.79C1024.38 1338.81 1019.29 1334.21 1013.31 1334.51L897.437 1340.42C891.459 1340.72 886.86 1345.81 887.165 1351.79L887.17 1351.88C887.474 1357.86 892.567 1362.46 898.544 1362.16" fill="#56ACF6" blush:i="0.4.0.0.0.0.11"/><path id="Fill 25" fill-rule="evenodd" clip-rule="evenodd" d="M887.569 1368.75C887.662 1370.57 888.485 1372.18 889.734 1373.3C890.983 1374.44 892.669 1375.1 894.486 1375.01L896.454 1374.9L899.798 1440.56L1020.27 1434.42L1016.93 1368.77L1018.84 1368.67C1022.47 1368.48 1025.27 1365.38 1025.08 1361.74C1024.99 1359.93 1024.17 1358.31 1022.92 1357.19C1021.67 1356.06 1019.98 1355.4 1018.16 1355.5L893.815 1361.83C890.18 1362.02 887.384 1365.11 887.569 1368.75" fill="#E4F9FF" blush:i="0.4.0.0.0.0.12"/><path id="Fill 27" fill-rule="evenodd" clip-rule="evenodd" d="M1085.32 1546.86C1085.32 1546.86 1085.73 1512.97 1075.17 1509.77C1064.6 1506.58 888.758 1510.48 888.758 1510.48L890.855 1545.56C890.855 1545.56 944.224 1556.71 990.054 1555.98C1035.88 1555.24 1084.1 1549.05 1085.32 1546.86" fill="#E4F9FF" blush:i="0.4.0.0.0.0.13"/><path id="Fill 29" fill-rule="evenodd" clip-rule="evenodd" d="M888.756 1510.48C888.824 1512.41 888.86 1513.51 888.86 1513.51C888.86 1513.51 923.782 1519.13 953.457 1520.65C983.133 1522.16 1070.2 1521.42 1075.52 1513.75C1079.93 1507.41 1040.86 1459.21 1027.16 1442.66C1029.88 1441.22 1031.68 1438.29 1031.51 1435C1031.4 1432.74 1030.37 1430.73 1028.82 1429.33C1027.26 1427.93 1025.16 1427.11 1022.9 1427.23L891.914 1433.9C887.39 1434.13 883.911 1437.98 884.142 1442.51C884.257 1444.76 885.28 1446.77 886.834 1448.18C887.421 1448.71 888.085 1449.15 888.803 1449.5C887.463 1465.06 888.432 1499.99 888.756 1510.48" fill="#204EB2" blush:i="0.4.0.0.0.0.14"/><path id="Fill 31" fill-rule="evenodd" clip-rule="evenodd" d="M1063.66 1490.72C1063.66 1490.72 1084.45 1510.87 1074.75 1514.79C1065.05 1518.71 987.758 1525.7 959.051 1522.59L930.345 1519.49C930.345 1519.49 927.513 1507.07 943.991 1493.55C955.768 1483.89 963.099 1471.04 974.373 1468.18C985.646 1465.32 1007.56 1462.98 1017.68 1467.42C1027.8 1471.85 1045.38 1481.05 1063.66 1490.72" fill="#56ACF6" blush:i="0.4.0.0.0.0.15"/><path id="Fill 33" fill-rule="evenodd" clip-rule="evenodd" d="M923.012 1476.74C923.012 1476.74 922.964 1505.07 912.143 1504.88C901.323 1504.68 894.561 1461.78 888.34 1449.42C888.34 1449.42 893.645 1447.7 904.024 1472.27C909.276 1484.71 908.828 1498.34 923.012 1476.74" fill="white" blush:i="0.4.0.0.0.0.16"/><path id="Stroke 35" d="M998.495 1455.64C1009.1 1455.01 1018.98 1456.15 1027.8 1458.45C1030.09 1459.04 1032.15 1459.68 1033.97 1460.32L1034.51 1460.51C1035.71 1460.95 1036.57 1461.3 1037.05 1461.52C1039.06 1462.43 1039.95 1464.8 1039.04 1466.81C1038.16 1468.76 1035.91 1469.66 1033.94 1468.88L1033.31 1468.62L1032.76 1468.4C1032.56 1468.32 1032.35 1468.24 1032.13 1468.16L1031.78 1468.03C1030.06 1467.41 1028.06 1466.78 1025.79 1466.19C1017.73 1464.09 1008.68 1463.05 998.971 1463.63C986.201 1464.39 973.418 1467.92 960.918 1474.81C958.983 1475.88 956.55 1475.17 955.484 1473.24C954.418 1471.3 955.122 1468.87 957.056 1467.81C970.629 1460.33 984.569 1456.47 998.495 1455.64Z" fill="white" blush:i="0.4.0.0.0.0.17"/><path id="Stroke 37" d="M986.61 1432.04C997.21 1431.4 1007.09 1432.54 1015.91 1434.84C1018.2 1435.43 1020.27 1436.07 1022.09 1436.71L1022.63 1436.9C1023.83 1437.34 1024.68 1437.69 1025.16 1437.91C1027.18 1438.82 1028.07 1441.19 1027.16 1443.2C1026.27 1445.15 1024.02 1446.05 1022.05 1445.28L1021.42 1445.01L1020.87 1444.79C1020.58 1444.67 1020.25 1444.55 1019.9 1444.42C1018.18 1443.8 1016.17 1443.17 1013.9 1442.58C1005.85 1440.49 996.797 1439.44 987.086 1440.02C974.316 1440.78 961.533 1444.32 949.033 1451.2C947.098 1452.27 944.665 1451.57 943.599 1449.63C942.533 1447.7 943.237 1445.26 945.172 1444.2C958.744 1436.72 972.684 1432.87 986.61 1432.04Z" fill="white" blush:i="0.4.0.0.0.0.18"/><path id="Stroke 39" d="M990.899 1440.26C1001.58 1439.34 1011.54 1440.25 1020.38 1442.33C1022.65 1442.86 1024.67 1443.44 1026.43 1444.01L1026.95 1444.19C1027.76 1444.46 1028.36 1444.69 1028.72 1444.84C1030.77 1445.68 1031.74 1448.02 1030.9 1450.06C1030.09 1452.04 1027.87 1453.02 1025.87 1452.31L1025.29 1452.09L1024.8 1451.91C1024.54 1451.82 1024.25 1451.72 1023.93 1451.61C1022.39 1451.11 1020.59 1450.59 1018.55 1450.12C1010.49 1448.22 1001.37 1447.39 991.583 1448.23C978.573 1449.34 965.637 1453.33 953.113 1460.83C951.217 1461.96 948.761 1461.34 947.627 1459.45C946.492 1457.55 947.11 1455.1 949.006 1453.96C962.604 1445.83 976.713 1441.47 990.899 1440.26Z" fill="white" blush:i="0.4.0.0.0.0.19"/><path id="Stroke 41" d="M954.078 1455.65C978.427 1445.93 1001.66 1446.69 1022.03 1453.82C1025.11 1454.9 1027.88 1456.06 1030.31 1457.22L1030.92 1457.51C1032.49 1458.28 1033.61 1458.9 1034.24 1459.28C1036.12 1460.44 1036.71 1462.9 1035.56 1464.78C1034.44 1466.61 1032.1 1467.22 1030.24 1466.21L1029.58 1465.83L1029.45 1465.76C1028.87 1465.44 1028.19 1465.08 1027.39 1464.69C1025.09 1463.57 1022.41 1462.43 1019.38 1461.37C1000.72 1454.84 979.437 1454.14 957.045 1463.08C954.993 1463.9 952.666 1462.9 951.847 1460.85C951.028 1458.79 952.027 1456.47 954.078 1455.65Z" fill="white" blush:i="0.4.0.0.0.0.20"/><g id="Group 45" blush:i="0.4.0.0.0.0.21"><path id="Fill 43" fill-rule="evenodd" clip-rule="evenodd" d="M432 0C432 0 397.702 210.307 349.081 445.495C349.081 445.495 345.515 461.54 385.628 456.191C425.74 450.844 541.619 457.083 595.102 467.779C648.585 478.476 653.041 478.476 653.041 441.038C653.041 403.6 660.173 313.571 660.173 313.571C660.173 313.571 663.738 475.802 681.566 471.345C699.393 466.889 798.766 405.172 971.457 436.983C971.457 436.983 990.771 432.438 985.091 411.988C979.41 391.538 877.363 100.607 864 0H432Z" fill="#204EB2" blush:i="0.4.0.0.0.0.21.0"/></g></g></g></g><g id="Upper Body" blush:component="Upper Body" blush:defaultValue="Gesturing" blush:width="1578" blush:height="1152" transform="translate(376 277) scale(1 1)" blush:i="0.4.0.1" blush:value="With Laptop" blush:viewBox="299.81999999999994 -3.9452054794520564 1136.16 1033.6438356164383"><g id="Upper Body/With Laptop" blush:viewBox="299.81999999999994 -3.9452054794520564 1136.16 1033.6438356164383" blush:i="0.4.0.1.0"><path id="Neck" fill-rule="evenodd" clip-rule="evenodd" d="M724.954 220C724.954 220 721.263 301.153 673.924 329.8C630.973 355.791 721.969 506.61 819.858 497.614C873.442 492.688 886 346.158 886 346.158C886 346.158 842.734 337.797 858.716 271.819L724.954 220Z" fill="#c26e5e" blush:color="Skin-500" blush:i="0.4.0.1.0.0"/><path id="Head" fill-rule="evenodd" clip-rule="evenodd" d="M803.337 302.516C739.877 294.841 694.078 253.116 687.665 183.898C669.216 186.835 664.865 138.765 670.003 123.323C675.146 107.859 691.933 116.901 691.933 116.901C691.933 116.901 693.327 113.235 694.303 109.226C722.025 -4.48555 799.67 0.0243587 799.67 0.0243587C942.344 7.45716 908.914 153.12 900.763 191.763C892.611 230.41 864.684 309.927 803.337 302.516Z" fill="#c26e5e" blush:color="Skin-500" blush:i="0.4.0.1.0.1"/><g id="Group 25" blush:i="0.4.0.1.0.2"><g id="Group 19" blush:i="0.4.0.1.0.2.0"><path id="Path" fill-rule="evenodd" clip-rule="evenodd" d="M355.167 622.26C355.167 622.26 272.104 769.102 318.966 841.798C365.828 914.494 432.305 818.432 459.628 711.139C486.95 603.847 543.449 539.781 543.449 539.781L355.167 622.26Z" fill="#c26e5e" blush:color="Skin-500" blush:i="0.4.0.1.0.2.0.0"/><path id="Fill 4" fill-rule="evenodd" clip-rule="evenodd" d="M546.853 361.719C629.753 336.083 655.299 334.639 655.299 334.639L742.806 353.497C742.806 353.497 790.767 416.531 794.877 472.713C794.877 472.713 796.247 398.717 827.765 348.016C827.765 348.016 966.477 346.741 1018.77 401.343C1101.37 487.586 1099.81 638.913 1099.81 638.913L963.52 652.929L1018.77 576C1018.77 576 1022.26 889.417 1014.04 970.265C909.998 1085.03 535.998 996.203 535.998 996.203C535.998 996.203 544.113 736.864 545.483 665.926C546.853 594.987 520.618 604.569 484.451 692.503C454.884 764.394 360.883 615.342 360.883 615.342C360.883 615.342 418.579 401.385 546.853 361.719Z" fill="#1BC0D7" blush:i="0.4.0.1.0.2.0.1"/><path id="Fill 6" fill-rule="evenodd" clip-rule="evenodd" d="M970.042 752.324C970.042 752.324 1037.34 728.192 1105.77 742.442C1105.77 742.442 1104.88 720.104 1105.59 690.608C1106.16 666.383 1119.43 628.891 1071.56 632.929C1015.84 637.628 991.959 638.12 967.734 649.079C967.734 649.079 961.967 729.253 970.042 752.324" fill="#FCEBEC" blush:i="0.4.0.1.0.2.0.2"/><path id="Fill 10" fill-rule="evenodd" clip-rule="evenodd" d="M329.938 662.404L359.283 570.059C359.283 570.059 467.903 547.37 510.938 641.254L478.683 724.849C478.683 724.849 418.369 635.909 329.938 662.404" fill="#237978" blush:i="0.4.0.1.0.2.0.3"/><g id="Group 14" blush:i="0.4.0.1.0.2.0.4"><mask id="mask0_406_32652b925195f-0bb5-4973-8b20-43c3bd039d74" style="mask-type:luminance" maskUnits="userSpaceOnUse" x="604" y="321" width="142" height="92" blush:i="0.4.0.1.0.2.0.4.0" fill="#ffffff"><path id="Clip 13" fill-rule="evenodd" clip-rule="evenodd" d="M604.551 321H745.312V412.701H604.551V321Z" fill="#ffffff" blush:i="0.4.0.1.0.2.0.4.0.0"/></mask><g mask="url(#mask0_406_32652b925195f-0bb5-4973-8b20-43c3bd039d74)" blush:i="0.4.0.1.0.2.0.4.1"><path id="Fill 12" fill-rule="evenodd" clip-rule="evenodd" d="M656.699 321.099C656.699 321.099 601.292 339.853 604.702 344.967C608.111 350.081 706.477 415.503 713.851 412.607C721.225 409.71 748.878 357.302 744.928 352.035C740.977 346.768 661.435 319.133 656.699 321.099" fill="#237978" blush:i="0.4.0.1.0.2.0.4.1.0"/></g></g><path id="Fill 15" fill-rule="evenodd" clip-rule="evenodd" d="M916.609 343.895C916.609 343.895 964.299 377.765 959.565 381.685C954.831 385.605 841.824 420.035 835.591 415.143C829.36 410.251 817.917 352.111 823.212 348.2C828.509 344.289 912.636 340.652 916.609 343.895" fill="#237978" blush:i="0.4.0.1.0.2.0.5"/><path id="Fill 8" fill-rule="evenodd" clip-rule="evenodd" d="M395.846 718.513C423.148 758.491 406.954 759.221 418.844 781.21C430.733 803.199 441.92 849.091 455.568 847.941C469.216 846.791 469.931 839.206 464.614 825.02C459.299 810.834 443.721 765.412 449.558 763.253C455.396 761.095 474.247 850.882 495.875 849.438C517.503 847.993 499.354 801.975 489.57 781.388C479.786 760.802 476.461 745.55 482.643 746.876C488.824 748.204 512.649 848.691 530.244 845.667C547.84 842.645 538.897 807.343 529.146 786.496C519.396 765.649 504.843 732.801 504.843 732.801C504.843 732.801 529.559 764.843 540.77 803.085C551.981 841.327 558.876 843.276 565.176 839.589C571.475 835.902 563.123 790.875 563.123 790.875C563.123 790.875 584.217 756.359 557.683 725.599C531.149 694.84 516.318 662.421 479.74 645.023C443.164 627.624 420.439 642.107 420.439 642.107C420.439 642.107 368.544 678.535 395.846 718.513Z" fill="#c26e5e" blush:color="Skin-500" blush:i="0.4.0.1.0.2.0.6"/><path id="Fill 17" fill-rule="evenodd" clip-rule="evenodd" d="M928.985 530.492H838.163C834.466 530.492 831.469 527.496 831.469 523.8V515.931C831.469 512.236 834.466 509.239 838.163 509.239H928.985C932.681 509.239 935.677 512.236 935.677 515.931V523.8C935.677 527.496 932.681 530.492 928.985 530.492" fill="#237978" blush:i="0.4.0.1.0.2.0.7"/></g><g id="Group 24" blush:i="0.4.0.1.0.2.1"><path id="Fill 20" fill-rule="evenodd" clip-rule="evenodd" d="M848.288 867.428L665.573 816.781C665.573 816.781 654.214 804.79 687.66 801.635C721.105 798.48 1070.56 789.143 1070.56 789.143L848.288 867.428Z" fill="#204EB2" blush:i="0.4.0.1.0.2.1.0"/><path id="Fill 22" fill-rule="evenodd" clip-rule="evenodd" d="M1366.31 866.879H853.827C844.334 866.879 836.637 859.184 836.637 849.69L883.161 512.203C883.161 502.71 890.856 495.014 900.349 495.014H1412.83C1422.33 495.014 1430.02 502.71 1430.02 512.203L1383.5 849.69C1383.5 859.184 1375.81 866.879 1366.31 866.879" fill="#3267C8" blush:i="0.4.0.1.0.2.1.1"/></g><g id="Group 2" blush:i="0.4.0.1.0.2.2"><path id="Fill 12" fill-rule="evenodd" clip-rule="evenodd" d="M1245.01 866.879C1245.01 866.879 1242.12 872.72 1238.17 878.88C1234.21 885.04 1231.96 881.44 1224.85 894.58C1217.75 907.721 1197.52 933.793 1147.81 915.824C1098.1 897.853 1098.18 886.451 1100.9 871.485C1103.62 856.52 1108.04 853.458 1102.69 828.657C1097.34 803.857 1113.38 773.191 1119.42 771.771L1125.45 770.35C1125.45 770.35 1126.62 745.6 1136.4 744.044C1146.19 742.49 1147.28 749.176 1147.28 749.176C1147.28 749.176 1150.26 743.335 1159.21 744.217C1168.16 745.1 1171.94 761.744 1175.54 781.157C1179.14 800.567 1184.94 851.761 1187.86 854.064C1190.77 856.367 1193.39 854.432 1191.2 842.687C1189.01 830.941 1174.7 785.222 1187.44 781.083C1200.17 776.944 1207.08 789.866 1215.18 816.48C1223.29 843.093 1226.35 847.514 1225.97 854.679L1228.42 866.879L1245.01 866.879Z" fill="#c26e5e" blush:color="Skin-500" blush:i="0.4.0.1.0.2.2.0"/><path id="Fill 14" fill-rule="evenodd" clip-rule="evenodd" d="M1147.21 748.773C1147.21 748.773 1147.77 747.035 1147.17 758.819C1146.95 763.11 1147.18 768.987 1148.21 777.038C1152.05 807.204 1156.74 854.968 1159.24 869.321C1161.73 883.676 1155.13 873.363 1151.31 839.94C1147.49 806.517 1143.91 766.417 1143.93 764.56C1143.95 761.397 1144.02 751.911 1147.21 748.773" fill="black" blush:i="0.4.0.1.0.2.2.1"/><path id="Fill 16" fill-rule="evenodd" clip-rule="evenodd" d="M1126.11 819.767C1127.02 832.868 1129.01 854.575 1129.19 856.877C1129.52 860.985 1130.41 868.941 1130.41 868.941C1130.41 868.941 1127.63 869.744 1124.97 845.373C1124.31 839.327 1122.57 828.278 1122.31 821.003C1122.07 814.31 1120.58 790.35 1122.07 786.614C1123.57 782.88 1125.86 781.594 1125.86 781.594C1125.86 781.594 1125.26 807.427 1126.11 819.767Z" fill="black" blush:i="0.4.0.1.0.2.2.2"/></g></g></g></g><g id="Expression" blush:component="Expression" blush:defaultValue="Meditating" blush:width="202" blush:height="224" transform="translate(1098 360) scale(1 1)" blush:i="0.4.0.2" blush:value="Make Up Holding Laughter" blush:viewBox="24.298226164079836 33.599999999999994 155.6430155210643 190.39999999999998"><g id="Expression/Make Up Holding Laughter" blush:viewBox="24.298226164079836 33.599999999999994 155.6430155210643 190.39999999999998" blush:i="0.4.0.2.0"><g id="Group 19" blush:i="0.4.0.2.0.0"><path id="Fill 12" fill-rule="evenodd" clip-rule="evenodd" d="M60.907 148.95C60.907 148.95 58.4517 164.71 80.2133 170.654C101.975 176.596 112.274 175.16 113.228 164.956C113.228 164.956 111.248 153.38 106.128 152.18C101.008 150.979 95.1886 153.046 95.1886 153.046C95.1886 153.046 90.9633 145.481 85.4422 145.426C79.92 145.372 68.1822 150.211 60.907 148.95" fill="#CE4129" blush:i="0.4.0.2.0.0.0"/><path id="Fill 10" fill-rule="evenodd" clip-rule="evenodd" d="M98.6818 162.979C82.8283 158.554 63.9074 152.977 58.27 149.093C54.1566 146.258 52.4494 146.586 52.4325 146.591C52.4335 146.591 54.5687 141.687 60.5387 145.798C66.3499 149.803 91.494 156.82 99.7574 159.127C114.212 163.16 115.647 162.587 117.465 161.864L118.946 165.578C117.185 166.282 115.566 166.635 112.083 166.146C109.232 165.745 105.132 164.779 98.6818 162.979Z" fill="black" blush:i="0.4.0.2.0.0.1"/><path id="Fill 17" fill-rule="evenodd" clip-rule="evenodd" d="M86.4619 223.176C72.6079 223.176 58.2859 219.136 48.0139 215.404C34.8549 210.623 25.3079 205.297 25.2129 205.244L26.6809 202.627C27.0519 202.836 64.1469 223.389 93.7939 219.746L94.1609 222.723C91.6319 223.034 89.0539 223.176 86.4619 223.176" fill="black" blush:i="0.4.0.2.0.0.2"/></g><g id="Group 124" blush:i="0.4.0.2.0.1"><path id="Stroke 114" d="M123.94 52.5157L127.749 53.7377L127.377 54.931C127.077 55.9043 126.744 57.0179 126.384 58.2529C125.356 61.7838 124.327 65.5761 123.368 69.479C122.301 73.8176 121.387 78.025 120.672 81.9977L120.465 83.1741C118.727 93.2777 118.482 100.993 120.034 105.142L120.126 105.377C129.004 127.34 116.948 138.478 91.6439 130.679L90.873 130.437L92.0921 126.627C114.886 133.921 124.027 125.703 116.417 106.876C114.322 101.694 114.645 92.8994 116.735 81.289C117.466 77.2273 118.398 72.9394 119.483 68.524C120.349 65.0028 121.269 61.5728 122.196 58.3382L122.543 57.1345C122.752 56.4176 122.952 55.7406 123.143 55.1069L123.631 53.5025L123.94 52.5157Z" fill="black" blush:i="0.4.0.2.0.1.0"/><path id="Stroke 122" d="M25.1855 205.534L27.1425 202.046L27.8567 202.435L28.5118 202.783C29.5036 203.305 30.6327 203.881 31.8877 204.498L32.4332 204.765C36.6543 206.821 41.3224 208.878 46.301 210.798C57.7489 215.212 69.0606 218.225 79.5848 219.202C84.3541 219.645 88.8741 219.656 93.1069 219.202L93.9496 219.105L94.4385 223.075C89.6635 223.663 84.5751 223.683 79.2149 223.185C68.2771 222.169 56.6257 219.066 44.8619 214.53C39.7712 212.567 35.0001 210.465 30.6815 208.361L29.0484 207.554C28.354 207.206 27.7021 206.873 27.0948 206.556L25.9633 205.958L25.1855 205.534Z" fill="black" blush:i="0.4.0.2.0.1.1"/></g><g id="Group 16" blush:i="0.4.0.2.0.2"><path id="Fill 5" fill-rule="evenodd" clip-rule="evenodd" d="M105.825 133.166C101.782 133.166 96.7384 132.375 90.4434 130.361L91.6614 126.551C103.385 130.302 112.045 129.996 116.046 125.687C119.449 122.02 119.428 115.313 115.987 106.801C113.652 101.026 114.229 90.0734 117.702 74.2454C120.243 62.6624 123.477 52.5414 123.51 52.4404L127.318 53.6624C123.811 64.5954 115.606 95.1874 119.695 105.302C124.893 118.16 122.174 124.964 118.977 128.408C116.697 130.866 112.718 133.166 105.825 133.166" fill="black" blush:i="0.4.0.2.0.2.0"/></g><path id="Fill 12_2" fill-rule="evenodd" clip-rule="evenodd" d="M78.6366 79.1288C77.9116 79.1288 77.1856 78.8679 76.6096 78.3389C76.5716 78.3049 71.6246 73.9129 64.4836 74.1789C57.0946 74.4519 52.1896 78.0668 52.1406 78.1028C50.8186 79.0928 48.9396 78.8329 47.9446 77.5169C46.9476 76.1999 47.1966 74.3309 48.5086 73.3279C48.7646 73.1319 54.8866 68.5299 64.2616 68.1829C73.9106 67.8359 80.3946 73.6699 80.6656 73.9189C81.8866 75.0389 81.9686 76.9369 80.8476 78.1569C80.2566 78.8019 79.4476 79.1288 78.6366 79.1288" fill="black" blush:i="0.4.0.2.0.3"/><path id="Fill 7" fill-rule="evenodd" clip-rule="evenodd" d="M27.6727 64.1793C27.6727 64.1793 39.1028 50.5029 49.4237 44.7334C55.7963 41.1716 95.1317 33.549 96.5704 41.6098C97.9716 49.4634 93.9254 49.7345 78.2425 52.2885C62.5593 54.8416 55.2116 55.4732 46.9705 59.3462C38.7282 63.2186 29.4179 68.4952 27.6727 64.1793" fill="black" blush:i="0.4.0.2.0.4"/><path id="Fill 10_2" fill-rule="evenodd" clip-rule="evenodd" d="M179.399 73.8038C179.399 73.8038 180.847 65.5116 178.853 60.0966C176.857 54.6832 152.161 32.1514 144.915 34.1123C133.403 37.2283 137.551 42.7447 152.125 52.5458C163.845 60.4288 168.517 63.4635 172.938 69.0172C178.979 76.6053 178.526 75.0269 179.399 73.8038" fill="black" blush:i="0.4.0.2.0.5"/><path id="Fill 14" fill-rule="evenodd" clip-rule="evenodd" d="M162.754 88.2724C162.029 88.2724 161.303 88.0114 160.727 87.4824C160.689 87.4484 155.742 83.0504 148.6 83.3224C141.231 83.5944 136.317 87.2014 136.27 87.2374C134.953 88.2444 133.07 87.9924 132.064 86.6764C131.058 85.3604 131.309 83.4774 132.625 82.4714C132.881 82.2754 139.004 77.6724 148.379 77.3264C158.024 76.9814 164.512 82.8134 164.783 83.0624C166.004 84.1824 166.086 86.0804 164.965 87.3004C164.374 87.9454 163.565 88.2724 162.754 88.2724" fill="black" blush:i="0.4.0.2.0.6"/></g></g><g id="Hairstyle" blush:component="Hairstyle" blush:defaultValue="Long Hair" blush:width="826" blush:height="747" transform="translate(607 33) scale(1 1)" blush:i="0.4.0.3" blush:value="Long Redhead" blush:viewBox="313.88 191.70796460176996 512.12 557.771017699115"><g id="Hairstyle/Long Redhead" blush:viewBox="313.88 191.70796460176996 512.12 557.771017699115" blush:i="0.4.0.3.0"><g id="Group 3" blush:i="0.4.0.3.0.0"><path id="Fill 1" fill-rule="evenodd" clip-rule="evenodd" d="M435.818 257.66C367.824 362.743 409.033 430.222 351.856 547.151C294.678 664.08 325.07 711.985 325.07 711.985C325.07 711.985 351.856 730.116 389.503 738.978C419.323 745.998 489.122 747 489.122 747C489.122 747 459.775 671.116 499.775 558.116C535.534 457.095 443.376 392.1 479.775 365.116C537.775 322.116 601.09 253.845 601.09 253.845C601.09 253.845 685.477 269.338 667.017 409.533C667.017 409.533 650.102 522.941 593.955 545.606C593.955 545.606 618.643 685.859 661.58 719.229C704.517 752.599 780.92 748 821 747C821 747 830.775 643.115 795.775 594.116C754.404 536.198 702.967 545.791 709.775 376.116C712.137 317.215 666.071 194.303 596.016 207.18C596.016 207.18 503.812 152.579 435.818 257.66Z" fill="#ffc943" blush:color="Hair-500" blush:i="0.4.0.3.0.0.0"/></g></g></g><g id="Accessories" blush:component="Accessories" blush:defaultValue="Glasses" blush:width="234" blush:height="78" transform="translate(1051 393) scale(1 1)" blush:i="0.4.0.4" blush:value="Dark Shades and Earring" blush:viewBox="1.1699999999999875 -3.619760479041915 235.16999999999996 84.07185628742513"><g id="Accessories/Dark Shades and Earring" blush:viewBox="1.1699999999999875 -3.619760479041915 235.16999999999996 84.07185628742513" blush:i="0.4.0.4.0"><g id="Group 18" blush:i="0.4.0.4.0.0"><path id="Fill 1" fill-rule="evenodd" clip-rule="evenodd" d="M138.693 34.1963C138.693 52.8063 123.606 67.8923 104.996 67.8923C86.3863 67.8923 71.2993 52.8063 71.2993 34.1963C71.2993 15.5863 86.3863 0.500305 104.996 0.500305C123.606 0.500305 138.693 15.5863 138.693 34.1963" fill="black" blush:i="0.4.0.4.0.0.0"/><path id="Fill 3" fill-rule="evenodd" clip-rule="evenodd" d="M104.996 4C88.346 4 74.8 17.546 74.8 34.196C74.8 50.847 88.346 64.393 104.996 64.393C121.646 64.393 135.193 50.847 135.193 34.196C135.193 17.546 121.646 4 104.996 4M104.996 71.393C84.486 71.393 67.8 54.706 67.8 34.196C67.8 13.687 84.486 -3 104.996 -3C125.507 -3 142.193 13.687 142.193 34.196C142.193 54.706 125.507 71.393 104.996 71.393" fill="black" blush:i="0.4.0.4.0.0.1"/><path id="Fill 5" fill-rule="evenodd" clip-rule="evenodd" d="M232.613 43.3037C232.613 61.9127 217.527 76.9997 198.917 76.9997C180.306 76.9997 165.22 61.9127 165.22 43.3037C165.22 24.6937 180.306 9.6077 198.917 9.6077C217.527 9.6077 232.613 24.6937 232.613 43.3037" fill="black" blush:i="0.4.0.4.0.0.2"/><g id="Group 9" blush:i="0.4.0.4.0.0.3"><mask id="mask0_406_12919138cb80d-9c89-4991-8186-3ad815e082a0" style="mask-type:luminance" maskUnits="userSpaceOnUse" x="161" y="6" width="76" height="75" blush:i="0.4.0.4.0.0.3.0" fill="#ffffff"><path id="Clip 8" fill-rule="evenodd" clip-rule="evenodd" d="M161.721 6.10741H236.113V80.5H161.721V6.10741Z" fill="#ffffff" blush:i="0.4.0.4.0.0.3.0.0"/></mask><g mask="url(#mask0_406_12919138cb80d-9c89-4991-8186-3ad815e082a0)" blush:i="0.4.0.4.0.0.3.1"><path id="Fill 7" fill-rule="evenodd" clip-rule="evenodd" d="M198.917 13.1074C182.267 13.1074 168.721 26.6534 168.721 43.3034C168.721 59.9544 182.267 73.5004 198.917 73.5004C215.567 73.5004 229.113 59.9544 229.113 43.3034C229.113 26.6534 215.567 13.1074 198.917 13.1074M198.917 80.5004C178.407 80.5004 161.721 63.8134 161.721 43.3034C161.721 22.7944 178.407 6.10741 198.917 6.10741C219.427 6.10741 236.113 22.7944 236.113 43.3034C236.113 63.8134 219.427 80.5004 198.917 80.5004" fill="black" blush:i="0.4.0.4.0.0.3.1.0"/></g></g><path id="Fill 10" fill-rule="evenodd" clip-rule="evenodd" d="M20.2998 8.5L70.2998 28.5Z" fill="black" blush:i="0.4.0.4.0.0.4"/><path id="Fill 12" fill-rule="evenodd" clip-rule="evenodd" d="M69 31.75L19 11.75L21.6 5.25L71.6 25.25L69 31.75Z" fill="black" blush:i="0.4.0.4.0.0.5"/><path id="Fill 14" fill-rule="evenodd" clip-rule="evenodd" d="M138.08 36.5811L164.3 39.5001Z" fill="black" blush:i="0.4.0.4.0.0.6"/><path id="Fill 16" fill-rule="evenodd" clip-rule="evenodd" d="M163.912 42.9785L137.692 40.0595L138.468 33.1025L164.687 36.0215L163.912 42.9785Z" fill="black" blush:i="0.4.0.4.0.0.7"/></g><g id="Group 5" blush:i="0.4.0.4.0.1"><path id="Fill 1_2" fill-rule="evenodd" clip-rule="evenodd" d="M22.5 66C22.5 71.799 17.8 76.5 12 76.5C6.201 76.5 1.5 71.799 1.5 66C1.5 60.2 6.201 55.5 12 55.5C17.8 55.5 22.5 60.2 22.5 66" fill="white" blush:i="0.4.0.4.0.1.0"/></g></g></g><g id="Facial Hair" blush:component="Facial Hair" blush:defaultValue="Beard" blush:width="212" blush:height="211" transform="translate(1061 394) scale(212 211)" blush:i="0.4.0.5" blush:value="None" blush:viewBox="1.75 1.75 0 0"><g id="Facial Hair/None" stroke="none" stroke-width="1" fill="none" fill-rule="evenodd" fill-opacity="0" blush:viewBox="1.75 1.75 0 0" blush:i="0.4.0.5.0"/></g></g></g></g></svg>