<svg viewBox="0 0 999.9999999999998 999.9999999999998" fill="none" xmlns="http://www.w3.org/2000/svg" xmlns:xlink="http://www.w3.org/1999/xlink" xmlns:blush="http://design.blush" overflow="visible" width="999.9999999999998px" height="999.9999999999998px"><g id="Master/Stickers/Research" blush:has-customizable-colors="true" blush:viewBox="0 0 999.9999999999998 999.9999999999998" blush:i="0"><g id="Blush/Stickers/Research" blush:i="0.0"><rect width="1000" height="1000" fill="white" blush:i="0.0.0"/><g id="Group" blush:i="0.0.1"><path id="Vector" d="M562.117 339.759L179.072 299.123L152.547 734.682C152.547 734.682 507.371 730.753 519.785 733.611C532.199 736.468 562.117 339.759 562.117 339.759V339.759Z" fill="#76AEA6" blush:i="0.0.1.0"/><path id="Vector_2" d="M199.082 297.611C199.082 297.611 330.634 232.058 507.465 289.751C634.82 331.28 634.105 697.625 634.105 697.625L281.871 685.032C281.871 685.032 282.943 348.249 199.082 297.7V297.611Z" fill="#F1F2F2" blush:i="0.0.1.1"/><path id="Vector_3" d="M499.888 621.806C500.96 621.628 501.853 620.735 502.299 619.306C502.924 617.162 502.299 614.84 500.781 613.947C499.799 613.411 477.561 600.551 462.557 596.532C453.09 593.942 448.803 601.444 445.32 607.517C442.373 612.697 439.872 617.073 434.246 617.162C426.029 617.162 418.438 610.107 411.204 603.32C406.649 599.033 402.005 594.657 397.183 592.067C388.43 587.333 382.268 597.961 377.356 606.445C374.409 611.536 371.551 616.716 369.05 616.537C364.585 616.18 358.244 612.161 352.082 608.232C346.902 605.016 342.079 601.98 337.971 600.64C327.254 597.247 318.502 619.217 317.519 621.717C316.716 623.682 317.251 626.183 318.68 627.254C320.109 628.326 321.806 627.612 322.61 625.647C324.485 620.646 331.273 606.892 336.81 608.589C340.382 609.75 345.026 612.608 349.849 615.644C356.458 619.842 363.335 624.128 368.783 624.575C374.052 625.021 377.981 618.145 381.822 611.536C386.912 602.784 390.485 597.247 395.129 599.658C399.326 601.891 403.524 605.91 407.989 610.018C415.938 617.52 424.243 625.289 434.246 625.2C442.552 625.2 446.57 618.145 449.875 612.518C453.179 606.713 455.412 602.873 461.485 604.48C475.864 608.41 498.37 621.271 498.548 621.449C498.995 621.717 499.441 621.807 499.977 621.717L499.888 621.806Z" fill="#261D2A" blush:i="0.0.1.2"/><path id="Vector_4" d="M502.808 547.231C503.879 547.053 504.862 546.16 505.308 544.642C505.933 542.498 505.308 540.087 503.701 539.194C502.718 538.658 479.587 525.708 464.048 521.689C454.224 519.099 449.758 526.78 446.186 532.853C443.149 538.033 440.47 542.588 434.665 542.588C426.091 542.588 418.321 535.532 410.73 528.655C405.997 524.369 401.174 519.903 396.173 517.313C387.063 512.58 380.722 523.297 375.632 531.871C372.595 536.961 369.559 542.23 367.058 542.141C362.414 541.784 355.805 537.765 349.375 533.835C344.017 530.62 339.015 527.494 334.728 526.244C323.654 522.85 314.545 545.088 313.562 547.589C312.758 549.554 313.294 552.054 314.723 553.215C316.152 554.287 317.938 553.573 318.742 551.608C320.707 546.607 327.762 532.674 333.478 534.371C337.229 535.532 341.962 538.39 347.053 541.516C353.93 545.713 361.075 550 366.701 550.536C372.149 550.983 376.257 544.016 380.276 537.229C385.545 528.387 389.296 522.672 394.119 525.172C398.495 527.405 402.871 531.424 407.515 535.711C415.821 543.302 424.394 551.072 434.754 550.983C443.417 550.983 447.615 543.838 450.919 538.122C454.402 532.228 456.635 528.298 462.976 529.995C477.98 533.925 501.2 546.964 501.468 547.053C501.914 547.321 502.45 547.41 502.897 547.321L502.808 547.231Z" fill="#261D2A" blush:i="0.0.1.3"/><path id="Vector_5" d="M550.485 467.302C551.914 467.123 553.253 466.141 553.878 464.712C554.771 462.568 553.789 460.068 551.646 459.175C550.306 458.639 518.78 445.6 497.614 441.491C484.307 438.901 478.234 446.671 473.322 452.834C469.124 458.103 465.552 462.747 457.693 462.747C446.083 462.836 435.366 455.691 425.095 448.725C418.665 444.349 412.056 439.884 405.179 437.294C392.765 432.561 384.102 443.367 377.226 452.119C373.117 457.299 369.009 462.658 365.526 462.479C359.275 462.122 350.254 458.014 341.502 454.084C334.268 450.78 327.391 447.743 321.497 446.404C306.404 443.01 293.99 465.516 292.65 468.106C291.578 470.16 292.293 472.66 294.258 473.821C296.223 474.893 298.634 474.178 299.795 472.214C302.474 467.123 312.03 453.012 319.8 454.709C324.891 455.87 331.41 458.817 338.287 461.854C347.664 466.051 357.399 470.428 365.08 470.874C372.492 471.321 378.119 464.265 383.477 457.388C390.622 448.368 395.712 442.652 402.232 445.153C408.216 447.475 414.199 451.494 420.451 455.781C431.793 463.372 443.403 471.321 457.514 471.231C469.303 471.231 474.929 463.908 479.484 458.192C484.217 452.209 487.343 448.279 495.828 449.886C516.19 453.816 547.895 466.945 548.252 467.034C548.877 467.302 549.592 467.391 550.217 467.302H550.485Z" fill="#261D2A" blush:i="0.0.1.4"/></g><g id="Group_2" blush:i="0.0.2"><g id="Group_3" blush:i="0.0.2.0"><path id="Vector_6" d="M653.91 599.203L912.548 485.424L875.485 412.994L616.757 509.448L552.098 598.846L653.91 599.203Z" fill="#FEFFFF" blush:i="0.0.2.0.0"/><path id="Vector_7" d="M620.044 513.732L562.172 593.663L652.82 594.021L905.475 482.921L873.056 419.422L620.044 513.732V513.732Z" fill="#FEFFFF" blush:i="0.0.2.0.1"/></g><path id="Vector_8" d="M590.842 543.09C590.842 543.09 623.859 600.921 620.8 601.101C617.741 601.28 540.463 607.666 541.003 603.709C541.543 599.752 590.842 543 590.842 543V543.09Z" fill="#261D2A" blush:i="0.0.2.1"/><path id="Vector_9" d="M621 502.053L664.36 599L906 494.733L864.777 401L621 502.053Z" fill="#E4BF1C" blush:i="0.0.2.2"/><path id="Vector_10" d="M649.24 559.486C649.598 557.975 650.76 556.642 652.28 556.02L866.823 468.381C869.505 467.314 872.455 468.559 873.617 471.225C874.69 473.892 873.438 476.825 870.756 477.98L656.213 565.619C653.531 566.686 650.581 565.441 649.419 562.775C648.972 561.708 648.883 560.553 649.151 559.575L649.24 559.486Z" fill="#261D2A" blush:i="0.0.2.3"/><path id="Vector_11" d="M629.183 525.519C629.541 523.994 630.703 522.649 632.222 522.022L857.913 430.384C860.595 429.308 863.544 430.564 864.617 433.254C865.69 435.944 864.438 438.992 861.757 439.978L636.065 531.616C633.384 532.692 630.434 531.437 629.362 528.747C628.915 527.671 628.915 526.505 629.183 525.519V525.519Z" fill="#261D2A" blush:i="0.0.2.4"/><path id="Vector_12" d="M833 402.51C833 402.51 864.053 512.822 871.995 508.898C876.278 506.758 925 488.209 925 488.209L881.722 382L833 402.51V402.51Z" fill="#BF4B46" blush:i="0.0.2.5"/><path id="Vector_13" d="M878.199 417.87C878.642 416.172 879.971 414.743 881.742 414.207C884.487 413.403 887.322 415.011 888.119 417.78L903.795 472.361C904.592 475.13 902.998 477.989 900.252 478.793C897.507 479.597 894.672 477.989 893.875 475.22L878.199 420.639C877.934 419.746 877.934 418.763 878.199 417.87Z" fill="#261D2A" blush:i="0.0.2.6"/></g></g></g></svg>