<svg viewBox="19.680851063829806 10.649999999999977 255.31914893617017 420.675" fill="none" xmlns="http://www.w3.org/2000/svg" xmlns:xlink="http://www.w3.org/1999/xlink" xmlns:blush="http://design.blush" overflow="visible" width="255.31914893617017px" height="420.675px"><g id="Master/Pose/Standing" blush:has-customizable-colors="true" blush:viewBox="-1.2784090909090935 0 302.55681818181813 425.9999999999999" blush:i="0"><g id="Head/Front" blush:component="Head/Front" blush:defaultValue="Afro" blush:width="136" blush:height="104" transform="translate(82 0) scale(1 1)" blush:i="0.0" blush:value="Curly" blush:viewBox="29.920000000000016 13.8848167539267 73.43999999999998 90.52356020942406"><g id="Head/Front/Curly" blush:viewBox="29.920000000000016 13.8848167539267 73.43999999999998 90.52356020942406" blush:i="0.0.0"><g id="Head" blush:i="0.0.0.0"><path id="SKIN" fill-rule="evenodd" clip-rule="evenodd" d="M73.9354 75.2443C80.411 79.1475 86.7736 81.0333 89.7603 80.2635C97.2496 78.333 97.9382 50.9351 92.1433 40.1339C86.3485 29.3328 56.5583 24.625 55.0568 46.0255C54.5356 53.4529 57.6544 60.0814 62.2623 65.4901L54 104H78L73.9354 75.2443Z" fill="#b28b67" blush:color="Skin-500" blush:i="0.0.0.0.0"/></g><path id="hair" fill-rule="evenodd" clip-rule="evenodd" d="M102.776 25.1604C102.279 23.4135 100.942 21.9178 99.1404 21.474C98.7035 21.3664 98.2524 21.3229 97.8028 21.341C97.6416 21.3475 97.5964 21.394 97.521 21.2812C97.4651 21.1976 97.4639 20.9934 97.4408 20.8951C97.3693 20.5896 97.2797 20.2879 97.1693 19.994C96.7923 18.9917 96.1589 18.1046 95.3952 17.3573C93.9669 15.9593 92.0369 14.9944 90.0318 14.8199C88.9344 14.7244 87.845 14.9027 86.8075 15.2597C86.2703 15.4445 85.7495 15.6746 85.2422 15.929C85.0895 16.0056 84.5939 16.3806 84.4407 16.3563C84.2714 16.3295 83.9311 15.9088 83.7935 15.8032C82.0921 14.4979 79.9911 13.9847 77.8719 14.0003C75.4799 14.018 73.1765 14.1375 71.1816 15.5957C70.7593 15.9044 70.3571 16.2425 69.9741 16.5983C69.7725 16.7857 69.5772 16.9801 69.3909 17.1825C69.2785 17.3047 69.169 17.4296 69.0637 17.5579C68.8849 17.7756 68.9136 17.8471 68.6633 17.6952C67.7032 17.1119 66.5907 16.8391 65.4701 16.9768C64.8046 17.0586 64.1572 17.2584 63.5425 17.5213C63.3332 17.6109 62.8487 17.9679 62.6256 17.9714C62.4043 17.9748 61.9266 17.6438 61.6987 17.5597C60.4675 17.1052 59.1404 16.9931 57.8462 17.2032C56.5113 17.4199 55.2 17.9525 54.0689 18.6885C53.5249 19.0425 53.0503 19.4348 52.6691 19.9612C52.5045 20.1885 52.3557 20.4289 52.1691 20.6396C52.0599 20.763 51.8436 20.8897 51.785 21.0458C51.8201 20.9523 50.3251 20.376 50.184 20.3391C49.4324 20.1428 48.6671 20.1826 47.9312 20.4248C46.5472 20.8803 45.3571 21.9016 44.3789 22.9487C43.8765 23.4866 43.4369 24.0811 43.0637 24.7145C42.8848 25.0179 42.7213 25.33 42.5717 25.6487C42.4991 25.8031 42.4511 25.9962 42.3556 26.1353C42.2324 26.3146 42.1497 26.318 41.9267 26.3961C40.794 26.7929 39.7616 27.4645 38.9753 28.3721C38.18 29.2902 37.664 30.4209 37.4476 31.6116C37.4349 31.6817 37.4273 31.9724 37.3862 32.0103C37.3299 32.0626 37.1022 32.0395 37.016 32.0496C36.7177 32.0846 36.4214 32.1367 36.1291 32.2059C35.5903 32.3335 35.0658 32.5211 34.5696 32.7666C32.6356 33.7235 31.2525 35.5175 30.5757 37.5361C29.8654 39.6546 29.878 42.0816 30.7269 44.1605C30.864 44.4963 31.0272 44.8222 31.2188 45.1305C31.3365 45.3198 31.3744 45.3203 31.298 45.5189C31.2129 45.7398 31.0573 45.9545 30.9562 46.1703C30.6262 46.8748 30.3956 47.6219 30.2499 48.3851C30.0108 49.6368 29.8924 50.9523 30.1282 52.2136C30.2377 52.7993 30.4284 53.3718 30.7195 53.8934C30.8679 54.1594 31.0415 54.4116 31.2376 54.645C31.3394 54.7661 31.4475 54.8818 31.5605 54.9927C31.6252 55.056 31.71 55.1114 31.765 55.1822C31.8992 55.3546 31.9274 55.2128 31.8582 55.4661C31.7614 55.8201 31.542 56.1694 31.4077 56.5139C31.2692 56.8689 31.1441 57.2288 31.0297 57.5923C30.7979 58.3282 30.6019 59.0774 30.4793 59.8395C30.244 61.3028 30.2853 62.8619 30.9775 64.2048C31.2734 64.7793 31.6979 65.2832 32.2128 65.6752C32.4649 65.8669 32.7378 66.0322 33.0242 66.168C33.1714 66.2378 33.3592 66.2678 33.4263 66.4101C33.4986 66.5631 33.3913 66.867 33.3669 67.038C33.1541 68.5263 33.0474 70.0889 33.4898 71.5473C33.8972 72.8907 34.7944 74.0767 35.9592 74.8619C38.2188 76.3852 41.2647 76.2993 43.6389 75.0798C44.2578 74.7619 44.8368 74.3672 45.3533 73.9017C46.6685 75.6722 49.375 75.6162 51.2972 75.1117C53.6921 74.4832 55.6137 72.818 56.7209 70.63C58.2348 72.473 61.412 71.875 62.4618 69.8757C62.7188 69.3864 62.8712 68.8471 62.9462 68.3014C62.9857 68.0144 62.9605 67.7249 62.9902 67.4402C63.028 67.0774 63.2703 66.7249 63.4096 66.374C63.6809 65.691 63.8493 64.9855 63.8566 64.2488C63.8604 63.8641 63.8116 63.4893 63.7751 63.1077C63.7422 62.7642 63.8374 62.4442 63.8915 62.1052C63.2773 62.2064 62.529 62.0407 61.9504 61.8626C61.3825 61.6879 60.8507 61.2276 60.4499 60.8072C59.5192 59.8311 58.9507 58.5515 58.5619 57.2779C57.7084 54.4826 58.0582 51.129 60.8698 49.5949C62.1795 48.8802 66.1034 48.8826 67.6633 49.2358C69.3036 49.6071 71.1631 53.2264 71.2546 53.5666C71.3112 53.7771 71.2827 54.0377 71.4761 54.178C71.9012 54.4864 72.6022 53.9511 72.9157 53.6869C73.4568 53.231 73.8427 52.6243 74.1769 52.0094C74.9052 50.6696 75.4923 49.2329 75.907 47.7663C76.2267 46.6355 76.4311 45.4695 76.849 44.3676C77.2649 43.2712 77.9204 42.2912 78.9396 41.67C80.0484 40.9943 81.3193 40.6385 82.5365 40.2138C83.743 39.793 84.9287 39.2787 85.8639 38.3857C86.0695 38.1894 86.2693 37.9807 86.4348 37.7495C86.5655 37.567 86.6946 37.2177 86.8937 37.102C87.2032 36.922 87.6549 37.3901 87.9226 37.56C89.243 38.3986 90.3446 39.5683 91.2331 40.846C92.1167 42.1167 92.8417 43.3395 93.4308 44.7584C93.8678 45.8108 94.1406 47.1586 94.9092 48.0211C95.2523 48.4062 97.8028 48.6392 98.629 48.303C99.4551 47.9667 100.381 47.0937 100.658 46.5466C100.942 45.9866 101.01 45.3715 100.889 44.7584C100.817 44.3978 100.672 44.0609 100.592 43.7066C100.525 43.4091 100.464 43.1278 100.319 42.8552C100.045 42.3386 99.5756 41.9673 99.0101 41.8121C99.5986 41.2694 100.086 40.6203 100.424 39.8946C100.774 39.1407 101.072 38.2238 101.156 37.3964C101.224 36.7243 101.119 36.028 100.751 35.4504C100.365 34.8445 99.681 34.4492 99.0894 34.0713C99.9931 33.3642 100.767 32.5044 101.402 31.5524C102.639 29.7011 103.404 27.3675 102.776 25.1604Z" fill="#2c1b18" blush:color="Hair-500" blush:i="0.0.0.1"/></g></g><g id="Lower Body/Standing" blush:component="Lower Body/Standing" blush:defaultValue="Jogging" blush:width="300" blush:height="239" transform="translate(0 187) scale(1 1)" blush:i="0.1" blush:value="Skinny Jeans Walk" blush:viewBox="21 -0.6005025125627981 249.00000000000006 240.2010050251256"><g id="Lower Body/Standing/Skinny Jeans Walk" blush:viewBox="21 -0.6005025125627981 249.00000000000006 240.2010050251256" blush:i="0.1.0"><path id="Leg" fill-rule="evenodd" clip-rule="evenodd" d="M128 0L176.082 127.227L209.783 221H229L182.674 0L128 0Z" fill="#191847" blush:color="Bottom-700" blush:i="0.1.0.0"/><path id="Leg" fill-rule="evenodd" clip-rule="evenodd" d="M116.117 0C115.594 43.6542 115.972 102.427 114.754 105.149C113.536 107.87 39 167.157 39 167.157L48.905 184C48.905 184 137.397 126.934 141.921 119.331C146.445 111.728 169.174 41.7631 181 0H116.117Z" fill="#393f82" blush:color="Bottom-500" blush:i="0.1.0.1"/><path id="Shoe" fill-rule="evenodd" clip-rule="evenodd" d="M21.5742 178.491L38.3039 165.759L51.8025 181.846C53.3599 200.037 63.8484 222.649 63.8484 222.649L60.7842 225.22L36.3583 196.11L29.5342 184.866L28.0021 186.152L21.5742 178.491Z" fill="#191847" blush:i="0.1.0.2"/><path id="Shoe_2" fill-rule="evenodd" clip-rule="evenodd" d="M208 239L209 218L230 218C244.936 228.5 269 235 269 235V239H231L218 237V239H208Z" fill="#191847" blush:i="0.1.0.3"/></g></g><g id="Upper Body" blush:component="Upper Body" blush:defaultValue="Jacket" blush:width="256" blush:height="187" transform="translate(22 82) scale(1 1)" blush:i="0.2" blush:value="Pointing Up" blush:viewBox="79.36000000000001 -22.41438356164383 172.8 161.38356164383558"><g id="Upper Body/Pointing Up" blush:viewBox="79.36000000000001 -22.41438356164383 172.8 161.38356164383558" blush:i="0.2.0"><path id="SKIN" fill-rule="evenodd" clip-rule="evenodd" d="M229.36 -9.03758L191.456 2.34084L201.134 18.4626L230.605 1.11849C244.362 0.299262 250.862 -1.05756 250.105 -2.95197C249.466 -4.54928 247.947 -4.82144 246.548 -5.07212C245.458 -5.2674 244.441 -5.44965 243.969 -6.23517C242.892 -8.02905 246.667 -12.6987 250.438 -16.977C254.21 -21.2552 251.192 -21.4545 249.369 -21.1114C243.101 -18.5666 236.431 -14.542 229.36 -9.03758ZM220.005 92.5917L188.107 69.1681L181.055 86.5991L212.643 99.6977C221.577 110.192 226.572 114.566 227.629 112.822C228.521 111.351 227.824 109.974 227.182 108.705C226.682 107.717 226.215 106.795 226.559 105.946C227.344 104.006 233.345 104.21 239.031 104.648C244.717 105.085 243.06 102.555 241.689 101.305C235.885 97.8307 228.657 94.9262 220.005 92.5917Z" fill="#b28b67" blush:color="Skin-500" blush:i="0.2.0.0"/><path id="Coat Back" fill-rule="evenodd" clip-rule="evenodd" d="M138.561 6.08676C155.931 38.4763 181.05 63.3052 217.466 89.1158L203.677 104.663C163.018 89.5528 141.559 80.4362 131.021 49.8347C128.376 42.1544 126.528 17.6708 124.942 4.7888L138.561 6.08676Z" fill="#77d692" blush:color="Top-700" blush:i="0.2.0.1"/><path id="Shirt" fill-rule="evenodd" clip-rule="evenodd" d="M90 114H167C167 114 140.837 34.2081 140.27 4.47156C140.251 3.4609 138.384 1.67996 137.559 1.91319C128.5 4.47156 118.172 0 118.172 0C99.9175 29.3584 93.6048 65.5046 90 114Z" fill="#F2F2F2" blush:i="0.2.0.2"/><path id="Coat Front" fill-rule="evenodd" clip-rule="evenodd" d="M137.486 44.7908C149.512 96.3771 148.958 138.606 122.407 138.606H81.3511C74.8304 94.784 91.9681 34.0236 107.856 3.37659C108.463 2.20628 109.754 0 112.797 0H124.727C124.732 0.0157986 124.737 0.0315971 124.743 0.0473957C128.332 0.0767918 132.286 0.208035 136.567 0.350165C158.608 1.08188 189.341 2.10213 223.923 -9L228 11.3735C196.787 31.4482 165.181 46.9991 137.486 44.7908Z" fill="#a8e5ba" blush:color="Top-500" blush:i="0.2.0.3"/></g></g></g></svg>